ffprobe version 2.6.3 Copyright (c) 2007-2015 the FFmpeg developers
  built with gcc 4.8 (Ubuntu 4.8.2-19ubuntu1)
  configuration: --extra-libs=-ldl --prefix=/opt/ffmpeg --enable-avresample --disable-debug --enable-nonfree --enable-gpl --enable-version3 --enable-libopencore-amrnb --enable-libopencore-amrwb --disable-decoder=amrnb --disable-decoder=amrwb --enable-libpulse --enable-libx264 --enable-libx265 --enable-libfdk-aac --enable-libvorbis --enable-libmp3lame --enable-libopus --enable-libvpx --enable-libspeex --enable-libass --enable-avisynth --enable-libsoxr --enable-libxvid --enable-libvo-aacenc --enable-libvidstab
  libavutil      54. 20.100 / 54. 20.100
  libavcodec     56. 26.100 / 56. 26.100
  libavformat    56. 25.101 / 56. 25.101
  libavdevice    56.  4.100 / 56.  4.100
  libavfilter     5. 11.102 /  5. 11.102
  libavresample   2.  1.  0 /  2.  1.  0
  libswscale      3.  1.101 /  3.  1.101
  libswresample   1.  1.100 /  1.  1.100
  libpostproc    53.  3.100 / 53.  3.100
Input #0, avi, from '../videoTest/bbb.avi':
  Metadata:
    encoder         : AVI-Mux GUI 1.17.7, Aug  8 2006  20:59:17
    JUNK            : 
  Duration: 00:09:56.46, start: 0.000000, bitrate: 4456 kb/s
    Stream #0:0: Video: mpeg4 (Simple Profile) (FMP4 / 0x34504D46), yuv420p, 1280x720 [SAR 1:1 DAR 16:9], 4001 kb/s, 24 fps, 24 tbr, 24 tbn, 24 tbc
    Stream #0:1: Audio: ac3 ([0] [0][0] / 0x2000), 48000 Hz, 5.1(side), fltp, 448 kb/s
    Metadata:
      title           : BBB-Master
